# xmcd
#
# Track frame offsets:
#       150
#       14080
#       25952
#       38100
#       52277
#       66217
#       78452
#       95307
#       114217
#       128852
#       145767
#       162620
#
# Disc length: 2384 seconds
#
# Revision: 2
# Processed by: cddbd v1.4PL0 Copyright (c) Steve Scherf et al.
# Submitted via: MusiCat 1.1b1
#
DISCID=a6094e0c
DTITLE=Johnny Cash - Giant Hits
DYEAR=1900
DGENRE=
TTITLE0=Don't Take Your Guns to Town
TTITLE1=I Walk the Line
TTITLE2=Ring of Fire
TTITLE3=Orange Blossom Special
TTITLE4=It Ain't Me, Babe
TTITLE5=I'm So Lonesome I Could Cry
TTITLE6=The City of New Orleans
TTITLE7=Sunday Morning Coming Down
TTITLE8=Happy to Be With You
TTITLE9=(ghost) Riders Inthe Sky
TTITLE10=A Boy Named Sue
TTITLE11=The Baron
EXTD=0\n\n\n
EXTT0=
EXTT1=
EXTT2=
EXTT3=
EXTT4=
EXTT5=
EXTT6=
EXTT7=
EXTT8=
EXTT9=
EXTT10=
EXTT11=
PLAYORDER=
